<svg width="118" height="100" viewBox="0 0 118 100" fill="none" xmlns="http://www.w3.org/2000/svg">
<g filter="url(#filter0_f_61_8113)">
<circle cx="59" cy="44" r="32" fill="url(#paint0_linear_61_8113)" fill-opacity="0.4"/>
</g>
<g filter="url(#filter1_ddi_61_8113)">
<circle cx="59" cy="44" r="29" fill="url(#paint1_linear_61_8113)"/>
<circle cx="59" cy="44" r="28.9" stroke="url(#paint2_linear_61_8113)" stroke-width="0.2"/>
</g>
<mask id="mask0_61_8113" style="mask-type:alpha" maskUnits="userSpaceOnUse" x="30" y="15" width="58" height="58">
<circle cx="59" cy="44" r="29" fill="url(#paint3_linear_61_8113)"/>
</mask>
<g mask="url(#mask0_61_8113)">
<g filter="url(#filter2_f_61_8113)">
<path d="M88 44C88 60.0163 75.0163 73 59 73C42.9837 73 30 60.0163 30 44C30 27.9837 42.9837 15 59 15C75.0163 15 88 27.9837 88 44ZM32.9 44C32.9 58.4146 44.5854 70.1 59 70.1C73.4146 70.1 85.1 58.4146 85.1 44C85.1 29.5854 73.4146 17.9 59 17.9C44.5854 17.9 32.9 29.5854 32.9 44Z" fill="url(#paint4_linear_61_8113)"/>
</g>
<path d="M47.2692 44.1289C47.2692 45.2773 48.1989 46.207 49.3474 46.207H56.9352V53.7949C56.9352 54.9297 57.8513 55.873 58.9997 55.873C60.1481 55.873 61.0778 54.9297 61.0778 53.7949V46.207H68.6657C69.8005 46.207 70.7302 45.2773 70.7302 44.1289C70.7302 42.9941 69.8005 42.0645 68.6657 42.0645H61.0778V34.4766C61.0778 33.3418 60.1481 32.3984 58.9997 32.3984C57.8513 32.3984 56.9352 33.3418 56.9352 34.4766V42.0645H49.3474C48.1989 42.0645 47.2692 42.9941 47.2692 44.1289Z" fill="#48319D"/>
</g>
<defs>
<filter id="filter0_f_61_8113" x="26" y="11" width="66" height="66" filterUnits="userSpaceOnUse" color-interpolation-filters="sRGB">
<feFlood flood-opacity="0" result="BackgroundImageFix"/>
<feBlend mode="normal" in="SourceGraphic" in2="BackgroundImageFix" result="shape"/>
<feGaussianBlur stdDeviation="0.5" result="effect1_foregroundBlur_61_8113"/>
</filter>
<filter id="filter1_ddi_61_8113" x="0" y="-15" width="118" height="118" filterUnits="userSpaceOnUse" color-interpolation-filters="sRGB">
<feFlood flood-opacity="0" result="BackgroundImageFix"/>
<feColorMatrix in="SourceAlpha" type="matrix" values="0 0 0 0 0 0 0 0 0 0 0 0 0 0 0 0 0 0 127 0" result="hardAlpha"/>
<feOffset dx="10" dy="10"/>
<feGaussianBlur stdDeviation="10"/>
<feComposite in2="hardAlpha" operator="out"/>
<feColorMatrix type="matrix" values="0 0 0 0 0.0519097 0 0 0 0 0.0787861 0 0 0 0 0.191667 0 0 0 0.5 0"/>
<feBlend mode="normal" in2="BackgroundImageFix" result="effect1_dropShadow_61_8113"/>
<feColorMatrix in="SourceAlpha" type="matrix" values="0 0 0 0 0 0 0 0 0 0 0 0 0 0 0 0 0 0 127 0" result="hardAlpha"/>
<feOffset dx="-10" dy="-10"/>
<feGaussianBlur stdDeviation="10"/>
<feComposite in2="hardAlpha" operator="out"/>
<feColorMatrix type="matrix" values="0 0 0 0 1 0 0 0 0 1 0 0 0 0 1 0 0 0 0.5 0"/>
<feBlend mode="overlay" in2="effect1_dropShadow_61_8113" result="effect2_dropShadow_61_8113"/>
<feBlend mode="normal" in="SourceGraphic" in2="effect2_dropShadow_61_8113" result="shape"/>
<feColorMatrix in="SourceAlpha" type="matrix" values="0 0 0 0 0 0 0 0 0 0 0 0 0 0 0 0 0 0 127 0" result="hardAlpha"/>
<feOffset dx="1" dy="1"/>
<feGaussianBlur stdDeviation="0.25"/>
<feComposite in2="hardAlpha" operator="arithmetic" k2="-1" k3="1"/>
<feColorMatrix type="matrix" values="0 0 0 0 1 0 0 0 0 1 0 0 0 0 1 0 0 0 1 0"/>
<feBlend mode="normal" in2="shape" result="effect3_innerShadow_61_8113"/>
</filter>
<filter id="filter2_f_61_8113" x="28" y="13" width="62" height="62" filterUnits="userSpaceOnUse" color-interpolation-filters="sRGB">
<feFlood flood-opacity="0" result="BackgroundImageFix"/>
<feBlend mode="normal" in="SourceGraphic" in2="BackgroundImageFix" result="shape"/>
<feGaussianBlur stdDeviation="1" result="effect1_foregroundBlur_61_8113"/>
</filter>
<linearGradient id="paint0_linear_61_8113" x1="38.5" y1="25" x2="77.5" y2="71" gradientUnits="userSpaceOnUse">
<stop/>
<stop offset="1" stop-color="white" stop-opacity="0.76"/>
</linearGradient>
<linearGradient id="paint1_linear_61_8113" x1="44" y1="23" x2="75.5" y2="67.8333" gradientUnits="userSpaceOnUse">
<stop stop-color="#F5F5F9"/>
<stop offset="1" stop-color="#DADFE7"/>
</linearGradient>
<linearGradient id="paint2_linear_61_8113" x1="38.8333" y1="24.8333" x2="73.1667" y2="70.5" gradientUnits="userSpaceOnUse">
<stop stop-color="white"/>
<stop offset="1" stop-color="#AEAEAE"/>
</linearGradient>
<linearGradient id="paint3_linear_61_8113" x1="44" y1="23" x2="75.5" y2="67.8333" gradientUnits="userSpaceOnUse">
<stop stop-color="#F5F5F9"/>
<stop offset="1" stop-color="#DADFE7"/>
</linearGradient>
<linearGradient id="paint4_linear_61_8113" x1="34.7911" y1="25.2008" x2="59" y2="73" gradientUnits="userSpaceOnUse">
<stop stop-color="white" stop-opacity="0"/>
<stop offset="1" stop-color="#BBBFC7"/>
</linearGradient>
</defs>
</svg>
